HIERARCHY
ROOT hip
{
	OFFSET 0.000000 0.000000 0.000000 
	CHANNELS 6 Xposition Yposition Zposition Xrotation Zrotation Yrotation
	JOINT abdomen
	{
		OFFSET 0.000000 3.402643 0.000000 
		CHANNELS 3 Xrotation Zrotation Yrotation
		JOINT chest
		{
			OFFSET 0.000000 8.438565 -0.680529 
			CHANNELS 3 Xrotation Zrotation Yrotation
			JOINT neck
			{
				OFFSET 0.000000 10.207942 -0.272212 
				CHANNELS 3 Xrotation Zrotation Yrotation
				JOINT head
				{
					OFFSET 0.000000 3.130431 0.000000 
					CHANNELS 3 Xrotation Zrotation Yrotation
					End Site
					{
						OFFSET 0.000000 3.130435 0.000000 
					}
				}
			}
			JOINT lCollar
			{
				OFFSET 3.470700 6.669187 -0.816635 
				CHANNELS 3 Yrotation Zrotation Xrotation
				JOINT lShldr
				{
					OFFSET 3.198488 0.000000 0.000000 
					CHANNELS 3 Zrotation Yrotation Xrotation
					JOINT lForeArm
					{
						OFFSET 10.139888 0.000000 0.000000 
						CHANNELS 3 Yrotation Zrotation Xrotation
						JOINT lHand
						{
							OFFSET 8.370511 0.000000 0.000000 
							CHANNELS 3 Zrotation Yrotation Xrotation
							End Site
							{
								OFFSET 4.083176 0.000000 0.000000 
							}
						}
					}
				}
			}
			JOINT rCollar
			{
				OFFSET -3.470700 6.669187 -0.816635 
				CHANNELS 3 Yrotation Zrotation Xrotation
				JOINT rShldr
				{
					OFFSET -3.198488 0.000000 0.000000 
					CHANNELS 3 Zrotation Yrotation Xrotation
					JOINT rForeArm
					{
						OFFSET -10.139888 0.000000 0.000000 
						CHANNELS 3 Yrotation Zrotation Xrotation
						JOINT rHand
						{
							OFFSET -8.370511 0.000000 0.000000 
							CHANNELS 3 Zrotation Yrotation Xrotation
							End Site
							{
								OFFSET -4.083176 0.000000 0.000000 
							}
						}
					}
				}
			}
		}
	}
	JOINT lThigh
	{
		OFFSET 5.308129 -1.633274 1.361059 
		CHANNELS 3 Xrotation Zrotation Yrotation
		JOINT lShin
		{
			OFFSET -2.041588 -20.007561 0.000000 
			CHANNELS 3 Xrotation Zrotation Yrotation
			JOINT lFoot
			{
				OFFSET 0.000000 -19.190928 -1.224953 
				CHANNELS 3 Xrotation Yrotation Zrotation
				End Site
				{
					OFFSET 0.000000 -2.449906 4.627600 
				}
			}
		}
	}
	JOINT rThigh
	{
		OFFSET -5.308129 -1.633274 1.361059 
		CHANNELS 3 Xrotation Zrotation Yrotation
		JOINT rShin
		{
			OFFSET 2.041588 -20.007561 0.000000 
			CHANNELS 3 Xrotation Zrotation Yrotation
			JOINT rFoot
			{
				OFFSET 0.000000 -19.190928 -1.224953 
				CHANNELS 3 Xrotation Yrotation Zrotation
				End Site
				{
					OFFSET 0.000000 -2.449906 4.627600 
				}
			}
		}
	}
}
MOTION
Frames: 15
Frame Time: 0.016667
-0.910737 50.380856 6.017539 9.359490 -3.818767 -4.013213 0.000000 0.000000 0.000000 3.618593 8.552372 -1.342400 -17.380392 -4.755844 -0.147599 -4.440987 -4.403163 -1.303241 1.992188 -2.001953 0.000341 -74.993752 3.055314 43.280342 -26.671061 -0.647690 12.373070 -2.629948 -4.590636 -0.959022 -2.001953 1.992188 0.000000 73.576775 30.918419 22.201614 45.466545 -0.605618 22.100105 -5.615464 2.271425 -1.556603 -2.029236 14.629686 -4.194685 -3.219665 -1.825184 5.044257 34.158337 1.179085 -26.573978 -3.407913 -7.280517 -21.478302 -3.647388 2.047112 7.089617 26.798212 4.825869 11.432916 
-0.960750 49.707981 6.555489 10.355906 -3.985797 -3.710535 0.000000 0.000000 0.000000 3.536906 9.128162 -1.403237 -17.486034 -5.107403 -0.157368 -5.245684 -4.295802 -1.283017 1.992188 -2.001953 0.000341 -75.037331 2.880991 45.991379 -24.087072 -0.964799 11.713080 -3.760361 -4.892506 -0.868612 -2.001953 1.992188 0.000000 74.360481 31.321997 21.850370 44.539032 -0.565847 21.543341 -7.149493 1.836351 -1.607300 -4.062347 14.755463 -4.411377 -3.228900 -1.844481 4.859966 32.093056 1.186784 -26.004892 -5.027969 -7.347785 -21.304390 -3.690447 2.069603 7.545679 25.871069 4.646772 12.630207 
-1.039623 48.797523 7.196245 11.346045 -3.851532 -3.171341 0.000000 0.000000 0.000000 3.660573 9.010858 -1.443360 -17.807932 -5.204696 -0.696702 -5.685730 -3.837139 -1.135501 1.992188 -2.001953 0.000341 -74.500046 0.967500 48.931728 -22.095608 -1.339944 11.180656 -4.765505 -5.160781 -0.771796 -2.001953 1.992188 0.000000 74.834618 31.917959 20.812216 44.052486 -0.513599 21.087288 -9.002995 1.299893 -1.658652 -6.304788 14.583337 -4.972776 -3.247386 -1.844011 4.245339 29.765982 1.218452 -25.691904 -6.902733 -7.817537 -21.573120 -3.735640 2.105762 8.899903 27.108730 4.381038 14.828902 
-1.118500 47.887047 7.836981 12.339189 -3.726543 -2.632820 0.000000 0.000000 0.000000 3.794168 8.893555 -1.481953 -18.127989 -5.301508 -1.236032 -6.122833 -3.378395 -0.998391 1.992188 -2.001953 0.000341 -74.061562 -0.965761 51.846275 -20.110018 -1.731261 10.655352 -5.760665 -5.437644 -0.674615 -2.001953 1.992188 0.000000 75.302704 32.520290 19.780420 43.568272 -0.481583 20.620491 -10.865384 0.770010 -1.688746 -8.540602 14.408766 -5.485642 -3.262406 -1.852303 3.601697 27.431692 1.246325 -25.391233 -8.776567 -8.304264 -21.815613 -3.774037 2.152844 10.244262 28.331949 4.131941 17.046097 
-1.230409 46.708042 8.233513 13.655841 -3.708647 -2.016347 0.000000 0.000000 0.000000 3.709376 8.970721 -1.700250 -18.563936 -5.456739 -1.648975 -6.464556 -3.095314 -0.910042 1.992188 -2.001953 0.000341 -73.235550 -3.054259 54.236069 -18.604544 -2.328259 10.250695 -5.194520 -5.283982 -0.732041 -2.001953 1.992188 0.000000 76.047836 33.395535 18.047180 42.907940 -0.474602 20.593517 -12.843188 0.201562 -1.708566 -11.285151 14.361526 -6.632364 -3.302608 -1.871636 2.539540 26.171637 1.357103 -26.224384 -10.779786 -8.473895 -22.085098 -3.801429 2.161854 10.916714 28.425297 3.981643 18.304897 
-1.342320 45.529015 8.630026 14.962979 -3.709849 -1.390131 0.000000 0.000000 0.000000 3.634084 9.037985 -1.917023 -18.997629 -5.611626 -2.061002 -6.814549 -2.821969 -0.831475 1.992188 -2.001953 0.000341 -72.500870 -5.176031 56.601086 -17.101761 -2.933997 9.852000 -4.618840 -5.129598 -0.787369 -2.001953 1.992188 0.000000 76.753967 34.287548 16.304106 42.258652 -0.464668 20.564764 -14.819862 -0.371689 -1.709906 -14.029967 14.265227 -7.741784 -3.365433 -1.894110 1.439564 24.917587 1.491014 -27.040476 -12.770363 -8.657310 -22.317369 -3.810966 2.200496 11.569050 28.508024 3.825186 19.553871 
-1.464822 44.112072 8.861543 16.281540 -3.739886 -0.783408 0.000000 0.000000 0.000000 3.967328 9.115534 -2.016526 -19.670444 -5.717149 -2.522567 -7.207383 -2.734101 -0.811488 1.992188 -2.001953 0.000341 -71.538437 -7.983337 59.035011 -16.006538 -3.375721 9.468516 -5.506466 -5.366575 -0.705325 -2.001953 1.992188 0.000000 78.325272 35.796127 13.993634 41.314259 -0.479045 21.079338 -16.853891 -0.958024 -1.679232 -15.767673 13.522831 -6.008819 -3.426335 -1.923726 0.066216 23.551634 1.418352 -25.671867 -14.127172 -7.358100 -25.917246 -3.799074 2.167223 10.701450 27.245564 4.452023 13.814893 
-1.587325 42.695110 9.093061 17.590382 -3.779277 -0.186431 0.000000 0.000000 0.000000 4.301880 9.193105 -2.106395 -20.352301 -5.822278 -2.974417 -7.600608 -2.646238 -0.782220 1.992188 -2.001953 0.000341 -70.693329 -10.823618 61.437981 -14.910624 -3.817612 9.097465 -6.393761 -5.603277 -0.625784 -2.001953 1.992188 0.000000 79.834793 37.368721 11.682424 40.367420 -0.502950 21.586769 -18.897120 -1.539298 -1.630132 -17.547762 12.850835 -4.246691 -3.472039 -1.961474 -1.317175 22.207687 1.310364 -24.297750 -15.573654 -6.168402 -29.577129 -3.755113 2.134828 9.874826 26.027637 5.186855 8.082451 
-1.708012 41.076530 9.335135 18.629293 -4.121092 0.048702 0.000000 0.000000 0.000000 5.261255 9.488757 -1.554078 -20.812113 -5.769468 -3.671122 -9.330808 -2.587662 -0.762706 1.992188 -2.001953 0.000341 -70.013756 -15.070698 62.559299 -13.482262 -3.926235 9.280051 -7.438348 -5.878924 -0.518061 -2.001953 1.992188 0.000000 81.578758 40.715733 8.687019 39.056408 -0.462269 22.697741 -20.619890 -2.035809 -1.581240 -25.032530 12.340732 -0.041210 12.816029 -2.374684 -4.200936 7.779026 2.060649 -17.301115 -19.261660 -6.848722 -27.424688 5.995398 1.757458 6.767901 11.966415 4.635124 4.075113 
-1.828699 39.457970 9.577215 19.655630 -4.462836 0.283864 0.000000 0.000000 0.000000 6.226388 9.783691 -1.000193 -21.281206 -5.725549 -4.377539 -11.060966 -2.529085 -0.743188 1.992188 -2.001953 0.000341 -69.391693 -19.349422 63.634777 -12.062391 -4.030988 9.467806 -8.474040 -6.152351 -0.401551 -2.001953 1.992188 0.000000 83.166985 44.134659 5.673921 37.734940 -0.451516 23.808640 -22.351963 -2.534283 -1.512500 -32.548264 12.402227 4.216768 29.139444 -1.939570 -7.113809 -6.655469 1.002961 -10.347039 -22.987661 -7.411967 -25.235151 15.774978 1.913601 3.648102 -2.147232 5.045302 0.045429 
-1.951427 37.971771 9.848417 21.263947 -4.892576 -0.049483 0.000000 0.000000 0.000000 5.894962 9.619131 -0.078658 -20.354134 -5.160941 -5.599174 -14.965402 -1.767514 -0.488651 1.992188 -2.001953 0.000341 -69.219460 -21.556452 63.722565 -9.676594 -3.300299 10.610728 -10.261284 -6.617673 -0.205637 -2.001953 1.992188 0.000000 83.852783 43.780029 3.273928 35.205975 -0.595492 24.765427 -23.754776 -2.933505 -1.449674 -38.209610 13.651009 5.719263 38.677555 -1.502574 -8.583582 -13.392772 1.127244 -7.611822 -28.895576 -8.056122 -23.482277 26.078556 1.298492 1.447426 -10.527077 4.746145 -0.527734 
-2.074149 36.485657 10.119673 22.869329 -5.322135 -0.402288 0.000000 0.000000 0.000000 5.546878 9.461912 0.833232 -19.435349 -4.577097 -6.799270 -18.862093 -0.996081 -0.293094 1.992188 -2.001953 0.000341 -69.044579 -23.769529 63.802212 -7.314573 -2.533093 11.720641 -12.059951 -7.078357 0.010594 -2.001953 1.992188 0.000000 84.566612 43.442139 0.890639 32.687237 -0.778690 25.719467 -25.157747 -3.330924 -1.368063 -43.872890 15.046995 7.107862 48.197289 -0.811996 -9.985698 -20.132296 0.952078 -4.862745 -34.838200 -8.511738 -21.656597 36.395229 1.093667 -0.830448 -18.888453 4.487774 -1.142656 
-2.164668 35.433544 10.676002 24.049730 -5.361133 -0.490707 0.000000 0.000000 0.000000 5.015501 9.002281 1.098135 -18.379757 -4.273931 -8.059733 -21.638355 0.605464 0.214935 1.992188 -2.001953 0.000341 -70.410080 -23.650118 63.587734 -5.227586 -0.508850 13.216320 -13.007791 -7.318662 0.123725 -2.001953 1.992188 0.000000 85.473473 41.158897 1.736052 27.532619 -1.344770 25.311842 -26.511967 -3.711679 -1.289001 -47.614384 15.428593 6.150703 53.729439 -0.394286 -9.882963 -22.974798 1.061815 -4.965437 -39.325073 -9.101303 -19.816452 43.517910 0.546335 -2.363700 -22.409727 4.301930 -0.227560 
-2.255191 34.381519 11.232264 25.230249 -5.400117 -0.579129 0.000000 0.000000 0.000000 4.480048 8.552303 1.363166 -17.332006 -3.951450 -9.300183 -24.398277 2.236182 0.654942 1.992188 -2.001953 0.000341 -71.773689 -23.534418 63.373062 -3.192318 1.558547 14.627414 -13.946543 -7.557135 0.244799 -2.001953 1.992188 0.000000 86.324608 38.864674 2.504739 22.388809 -1.878014 24.854637 -27.866684 -4.081682 -1.196585 -51.366787 15.742034 5.158684 59.287769 0.013401 -9.750904 -25.816986 1.177197 -5.049122 -43.815071 -9.539488 -17.932419 50.654781 0.184624 -3.948529 -25.904358 4.050344 0.678827 
-2.363883 33.778988 11.451424 25.233162 -5.351552 0.117587 0.000000 0.000000 0.000000 5.743940 8.327989 1.294094 -18.045870 -4.095108 -10.163565 -25.318428 2.890307 0.850991 1.992188 -2.001953 0.000341 -76.049911 -28.032784 59.636581 0.128322 3.970286 15.170227 -10.494807 -6.679611 -0.186944 -2.001953 1.992188 0.000000 86.974014 41.304451 5.992007 20.235895 -1.872153 23.404049 -24.180811 -3.049293 -1.423100 -53.003731 15.301232 3.928490 62.769180 0.335974 -9.461623 -26.755848 1.273328 -5.748460 -45.718712 -10.378983 -17.765106 55.359295 -0.185736 -4.677033 -27.058010 3.972714 0.928977 
